<?xml version="1.0" encoding="UTF-8" standalone="no"?>
<svg width="50px" height="50px" viewBox="0 0 50 50" version="1.1" xmlns="http://www.w3.org/2000/svg" xmlns:xlink="http://www.w3.org/1999/xlink">
    <!-- Generator: Sketch 40.3 (33839) - http://www.bohemiancoding.com/sketch -->
    <title>drop-pending</title>
    <desc>Created with Sketch.</desc>
    <defs>
        <path d="M14.121874,37.2686055 C21.9211697,37.2686055 28.2437481,30.9460272 28.2437481,23.1467315 C28.3485563,10.7900917 14.121874,0 14.121874,0 C14.121874,0 0.159217759,10.7900917 -3.55271368e-14,23.1467315 C-3.55271368e-14,30.9460272 6.32257837,37.2686055 14.121874,37.2686055 Z" id="path-1"></path>
        <mask id="mask-2" maskContentUnits="userSpaceOnUse" maskUnits="objectBoundingBox" x="0" y="0" width="28.2443243" height="37.2686055" fill="white">
            <use xlink:href="#path-1"></use>
        </mask>
    </defs>
    <g id="Symbols" stroke="none" stroke-width="1" fill="none" fill-rule="evenodd">
        <g id="drop-pending" fill="#FFFFFF">
            <g id="Group-2" transform="translate(11.000000, 6.000000)">
                <path d="M14.121874,37.2686055 C21.9211697,37.2686055 28.2437481,30.9460272 28.2437481,23.1467315 C28.3485563,10.7900917 14.121874,0 14.121874,0 C14.121874,0 0.159217759,10.7900917 -3.55271368e-14,23.1467315 C-3.55271368e-14,30.9460272 6.32257837,37.2686055 14.121874,37.2686055 Z" id="Oval" stroke="#FFFFFF" stroke-width="5"></path>
                <use id="Oval" stroke="#0073F8" mask="url(#mask-2)" stroke-width="6" stroke-dasharray="7,3" xlink:href="#path-1"></use>
            </g>
        </g>
    </g>
</svg>