<?xml version="1.0" encoding="UTF-8" standalone="no"?>
<svg width="307px" height="38px" viewBox="0 0 307 38" version="1.1" xmlns="http://www.w3.org/2000/svg" xmlns:xlink="http://www.w3.org/1999/xlink">
    <!-- Generator: Sketch 40.3 (33839) - http://www.bohemiancoding.com/sketch -->
    <title>IWBA_logo</title>
    <desc>Created with Sketch.</desc>
    <defs></defs>
    <g id="Page-1" stroke="none" stroke-width="1" fill="none" fill-rule="evenodd">
        <g id="prompt" transform="translate(-683.000000, -29.000000)" fill="#0073F8">
            <g id="IWBA-logo" transform="translate(669.000000, 19.000000)">
                <g id="Group-Copy" transform="translate(14.000000, 10.000000)">
                    <path d="M0.416992188,35.0712891 L4.68945312,35.0712891 L4.68945312,4.30957031 L0.416992188,4.30957031 L0.416992188,2.40527344 L25.7832031,2.40527344 L25.7832031,4.30957031 L21.5351562,4.30957031 L21.5351562,35.0712891 L25.7832031,35.0712891 L25.7832031,37 L0.416992188,37 L0.416992188,35.0712891 Z M31.5205078,4.30957031 L28.078125,4.30957031 L28.078125,2.40527344 L52.7607422,2.40527344 L52.7607422,4.30957031 L48.3662109,4.30957031 L55.1289062,24.3291016 L58.7910156,12.0244141 L55.9833984,4.30957031 L54.3720703,4.30957031 L54.3720703,2.40527344 L77.2236328,2.40527344 L77.2236328,4.30957031 L72.8291016,4.30957031 L79.5429688,24.2070312 L84.8896484,5.82324219 C84.9384768,5.67675708 84.9628906,5.54655005 84.9628906,5.43261719 C84.9628906,5.22102759 84.8530284,5.04606189 84.6333008,4.90771484 C84.4135731,4.7693678 84.1043314,4.65543665 83.7055664,4.56591797 C83.3068014,4.47639929 82.8348009,4.41129578 82.2895508,4.37060547 C81.7443007,4.32991516 81.1461621,4.30957031 80.4951172,4.30957031 L80.4951172,2.40527344 L92.1162109,2.40527344 L92.1162109,4.30957031 C90.667636,4.30957031 89.5974969,4.4194325 88.9057617,4.63916016 C88.2140265,4.85888782 87.7786467,5.25357788 87.5996094,5.82324219 L78.3710938,37 L67.8730469,37 L60.1826172,15.8085938 L53.9082031,37 L43.4345703,37 L31.5205078,4.30957031 Z M94.1669922,35.0712891 L98.4638672,35.0712891 L98.4638672,4.30957031 L94.1669922,4.30957031 L94.1669922,2.40527344 L118.849609,2.40527344 C120.965505,2.40527344 122.934887,2.5314115 124.757813,2.78369141 C126.580738,3.03597131 128.167636,3.48355798 129.518555,4.12646484 C130.869473,4.7693717 131.931474,5.64013123 132.70459,6.73876953 C133.477706,7.83740784 133.864258,9.22492651 133.864258,10.9013672 C133.864258,12.2685615 133.591637,13.4444938 133.046387,14.4291992 C132.501137,15.4139047 131.650722,16.2276986 130.495117,16.8706055 C129.339512,17.5135123 127.846201,17.9977197 126.015137,18.3232422 C124.184073,18.6487646 121.990898,18.8196614 119.435547,18.8359375 C120.819017,18.8522136 122.194329,18.8969723 123.561523,18.9702148 C124.928718,19.0434574 126.230788,19.1858713 127.467773,19.3974609 C128.704759,19.6090505 129.852208,19.9142233 130.910156,20.3129883 C131.968104,20.7117533 132.887691,21.2325814 133.668945,21.8754883 C134.450199,22.5183951 135.060545,23.3118442 135.5,24.2558594 C135.939455,25.1998745 136.15918,26.3229102 136.15918,27.625 C136.15918,29.480478 135.809248,31.0144796 135.109375,32.2270508 C134.409502,33.4396219 133.400397,34.3998988 132.082031,35.1079102 C130.763665,35.8159215 129.148284,36.3082668 127.23584,36.5849609 C125.323395,36.861655 123.146497,37 120.705078,37 L94.1669922,37 L94.1669922,35.0712891 Z M115.285156,18.0791016 C116.017582,18.0791016 116.701169,17.9895842 117.335938,17.8105469 C117.970706,17.6315095 118.524086,17.2856471 118.996094,16.7729492 C119.468101,16.2602513 119.838378,15.5441127 120.106934,14.6245117 C120.37549,13.7049108 120.509766,12.5127026 120.509766,11.0478516 C120.509766,9.58300049 120.37549,8.40299927 120.106934,7.5078125 C119.838378,6.61262573 119.468101,5.91683191 118.996094,5.42041016 C118.524086,4.9239884 117.970706,4.59033289 117.335938,4.41943359 C116.701169,4.2485343 116.017582,4.16308594 115.285156,4.16308594 L115.285156,18.0791016 Z M115.285156,35.0712891 C116.180343,35.0712891 116.953447,34.9939786 117.604492,34.8393555 C118.255537,34.6847323 118.79671,34.3714216 119.228027,33.8994141 C119.659345,33.4274065 119.980793,32.7478885 120.192383,31.8608398 C120.403972,30.9737911 120.509766,29.7978589 120.509766,28.3330078 C120.509766,25.4033057 120.082524,23.2670966 119.228027,21.9243164 C118.373531,20.5815363 117.059254,19.9101562 115.285156,19.9101562 L115.285156,35.0712891 Z M134.429688,35.0712891 C135.748053,35.0712891 136.761227,34.9817717 137.469238,34.8027344 C138.17725,34.623697 138.628905,34.2981794 138.824219,33.8261719 L151.397461,2.40527344 L162.115234,2.40527344 L176.836914,35.0712891 L181.084961,35.0712891 L181.084961,37 L153.399414,37 L153.399414,35.0712891 L158.111328,35.0712891 L154.742188,26.6484375 L144,26.6484375 L141.143555,33.7529297 C141.127279,33.8017581 141.119141,33.8668616 141.119141,33.9482422 C141.119141,34.1761079 141.229003,34.3592115 141.44873,34.4975586 C141.668458,34.6359056 141.9777,34.7498368 142.376465,34.8393555 C142.77523,34.9288741 143.24723,34.9899087 143.79248,35.0224609 C144.337731,35.0550132 144.935869,35.0712891 145.586914,35.0712891 L145.586914,37 L134.429688,37 L134.429688,35.0712891 Z M153.985352,24.7197266 L149.273438,13.1962891 L144.756836,24.7197266 L153.985352,24.7197266 Z" id="IWBA"></path>
                    <path d="M178.628418,10.4985352 L179.739258,10.4985352 L179.739258,2.50048828 L178.628418,2.50048828 L178.628418,2.00537109 L185.223633,2.00537109 L185.223633,2.50048828 L184.119141,2.50048828 L184.119141,10.4985352 L185.223633,10.4985352 L185.223633,11 L178.628418,11 L178.628418,10.4985352 Z M186.359863,10.5429688 L187.470703,10.5429688 L187.470703,4.39208984 L186.359863,4.39208984 L186.359863,3.93505859 L191.247559,3.93505859 L191.247559,4.74755859 C191.382976,4.58251871 191.546955,4.43440821 191.739502,4.30322266 C191.932048,4.1720371 192.144693,4.06095423 192.377441,3.9699707 C192.61019,3.87898718 192.858804,3.81022159 193.123291,3.76367187 C193.387778,3.71712216 193.659667,3.69384766 193.938965,3.69384766 C194.514489,3.69384766 194.9895,3.76896084 195.364014,3.91918945 C195.738527,4.06941807 196.03369,4.28312036 196.249512,4.56030273 C196.465333,4.83748511 196.615559,5.17390753 196.700195,5.56958008 C196.784831,5.96525263 196.827148,6.40641033 196.827148,6.89306641 L196.827148,10.5429688 L197.937988,10.5429688 L197.937988,11 L192.415527,11 L192.415527,10.5429688 L193.050293,10.5429688 L193.050293,6.89306641 C193.050293,6.45719183 193.037598,6.1006687 193.012207,5.82348633 C192.986816,5.54630395 192.942383,5.32836993 192.878906,5.16967773 C192.815429,5.01098553 192.730795,4.90096059 192.625,4.83959961 C192.519205,4.77823863 192.385906,4.74755859 192.225098,4.74755859 C192.06429,4.74755859 191.922527,4.78141242 191.799805,4.84912109 C191.677083,4.91682977 191.574463,5.01204366 191.491943,5.13476562 C191.409423,5.25748759 191.348063,5.40348223 191.307861,5.57275391 C191.267659,5.74202559 191.247559,5.92610578 191.247559,6.125 L191.247559,10.5429688 L191.875977,10.5429688 L191.875977,11 L186.359863,11 L186.359863,10.5429688 Z M199.404297,4.39208984 L198.293457,4.39208984 L198.293457,3.93505859 L199.404297,3.93505859 C199.831708,3.93505859 200.215737,3.86206128 200.556396,3.71606445 C200.897056,3.57006763 201.186929,3.37963985 201.426025,3.14477539 C201.665122,2.90991094 201.848144,2.64648583 201.975098,2.35449219 C202.102051,2.06249854 202.165527,1.77050927 202.165527,1.47851562 L203.181152,1.47851562 L203.181152,3.93505859 L205.225098,3.93505859 L205.225098,4.39208984 L203.181152,4.39208984 L203.181152,8.30224609 C203.181152,8.75504784 203.205485,9.12426615 203.25415,9.40991211 C203.302816,9.69555807 203.37264,9.91878175 203.463623,10.0795898 C203.554607,10.2403979 203.662516,10.3493649 203.787354,10.4064941 C203.912191,10.4636233 204.05078,10.4921875 204.203125,10.4921875 C204.351238,10.4921875 204.495116,10.4593916 204.634766,10.3937988 C204.774415,10.3282061 204.897135,10.2224128 205.00293,10.076416 C205.108724,9.93041919 205.193359,9.73999141 205.256836,9.50512695 C205.320313,9.2702625 205.352051,8.98144703 205.352051,8.63867188 C205.352051,8.55826783 205.349935,8.47469119 205.345703,8.38793945 C205.341471,8.30118772 205.335124,8.21126349 205.32666,8.11816406 L205.859863,8.11816406 C205.872559,8.32975366 205.878906,8.52229731 205.878906,8.69580078 C205.878906,9.22477478 205.805909,9.65535316 205.659912,9.98754883 C205.513915,10.3197445 205.305503,10.5789379 205.034668,10.7651367 C204.763833,10.9513356 204.434816,11.0782874 204.047607,11.1459961 C203.660398,11.2137048 203.225588,11.2475586 202.743164,11.2475586 C202.201495,11.2475586 201.723309,11.194662 201.308594,11.0888672 C200.893878,10.9830724 200.544761,10.8148612 200.26123,10.5842285 C199.9777,10.3535959 199.763998,10.0563169 199.620117,9.69238281 C199.476236,9.3284487 199.404297,8.88623307 199.404297,8.36572266 L199.404297,4.39208984 Z M206.564453,7.40087891 C206.564453,6.83381878 206.680826,6.32177963 206.913574,5.86474609 C207.146323,5.40771256 207.468992,5.01839354 207.881592,4.69677734 C208.294192,4.37516115 208.782956,4.12760503 209.3479,3.95410156 C209.912845,3.78059809 210.525387,3.69384766 211.185547,3.69384766 C211.693362,3.69384766 212.153562,3.7446284 212.566162,3.84619141 C212.978762,3.94775441 213.344806,4.08634352 213.664307,4.26196289 C213.983807,4.43758226 214.258869,4.64599489 214.489502,4.88720703 C214.720135,5.12841917 214.910562,5.38867048 215.060791,5.66796875 C215.21102,5.94726702 215.322103,6.24031422 215.394043,6.54711914 C215.465983,6.85392406 215.501953,7.16178231 215.501953,7.47070312 L210.411133,7.47070312 C210.411133,8.1181673 210.439697,8.6450175 210.496826,9.05126953 C210.553955,9.45752156 210.644938,9.77595913 210.769775,10.0065918 C210.894613,10.2372245 211.055419,10.3948563 211.252197,10.4794922 C211.448976,10.564128 211.68701,10.6064453 211.966309,10.6064453 C212.321779,10.6064453 212.656086,10.5620122 212.969238,10.4731445 C213.282391,10.3842769 213.562743,10.258383 213.810303,10.095459 C214.057863,9.93253499 214.264159,9.73575962 214.429199,9.50512695 C214.594239,9.27449429 214.70638,9.01530092 214.765625,8.72753906 L215.362305,8.72753906 C215.319987,9.12109572 215.199383,9.47338712 215.000488,9.78442383 C214.801594,10.0954605 214.538169,10.3588856 214.210205,10.574707 C213.882241,10.7905284 213.497154,10.9555658 213.054932,11.0698242 C212.612709,11.1840826 212.129234,11.2412109 211.604492,11.2412109 C210.779293,11.2412109 210.052493,11.1555184 209.424072,10.9841309 C208.795651,10.8127433 208.269859,10.5630713 207.84668,10.2351074 C207.4235,9.90714354 207.104005,9.50512933 206.888184,9.02905273 C206.672362,8.55297614 206.564453,8.01025695 206.564453,7.40087891 L206.564453,7.40087891 Z M212.194824,6.82958984 C212.182129,6.30061584 212.156738,5.86051608 212.118652,5.50927734 C212.080566,5.15803861 212.025554,4.87662866 211.953613,4.66503906 C211.881673,4.45344946 211.792807,4.30428103 211.687012,4.2175293 C211.581217,4.13077756 211.454265,4.08740234 211.306152,4.08740234 C211.15804,4.08740234 211.03003,4.13077756 210.922119,4.2175293 C210.814208,4.30428103 210.724284,4.45344946 210.652344,4.66503906 C210.580403,4.87662866 210.525391,5.15803861 210.487305,5.50927734 C210.449219,5.86051608 210.425944,6.30061584 210.41748,6.82958984 L212.194824,6.82958984 Z M216.581055,10.5429688 L217.691895,10.5429688 L217.691895,4.39208984 L216.581055,4.39208984 L216.581055,3.93505859 L221.46875,3.93505859 L221.46875,4.74755859 C221.604167,4.58251871 221.764973,4.43546614 221.951172,4.30639648 C222.137371,4.17732683 222.343667,4.06730189 222.570068,3.97631836 C222.796469,3.88533483 223.039794,3.81551131 223.300049,3.7668457 C223.560304,3.7181801 223.830077,3.69384766 224.109375,3.69384766 C224.401369,3.69384766 224.663736,3.72981735 224.896484,3.80175781 C225.129233,3.87369828 225.328124,3.97208596 225.493164,4.09692383 C225.658204,4.22176169 225.784098,4.36987219 225.87085,4.54125977 C225.957601,4.71264734 226.000977,4.89778546 226.000977,5.09667969 C226.000977,5.28711033 225.95337,5.46695879 225.858154,5.63623047 C225.762939,5.80550215 225.631755,5.95361265 225.4646,6.08056641 C225.297444,6.20752017 225.101726,6.30802372 224.877441,6.38208008 C224.653156,6.45613644 224.414064,6.49316406 224.160156,6.49316406 C223.906249,6.49316406 223.667156,6.45613644 223.442871,6.38208008 C223.218586,6.30802372 223.022869,6.20752017 222.855713,6.08056641 C222.688557,5.95361265 222.556316,5.80550215 222.458984,5.63623047 C222.361653,5.46695879 222.312988,5.28711033 222.312988,5.09667969 C222.312988,4.99934847 222.326741,4.90307665 222.354248,4.80786133 C222.381755,4.71264601 222.418782,4.62272178 222.465332,4.53808594 C222.376464,4.58040386 222.273845,4.64493772 222.157471,4.73168945 C222.041096,4.81844119 221.932129,4.92529233 221.830566,5.05224609 C221.729003,5.17919985 221.643311,5.32625242 221.573486,5.4934082 C221.503662,5.66056399 221.46875,5.84147038 221.46875,6.03613281 L221.46875,10.5429688 L222.700195,10.5429688 L222.700195,11 L216.581055,11 L216.581055,10.5429688 Z M226.635742,10.5429688 L227.746582,10.5429688 L227.746582,4.39208984 L226.635742,4.39208984 L226.635742,3.93505859 L231.523438,3.93505859 L231.523438,4.74755859 C231.658855,4.58251871 231.822834,4.43440821 232.015381,4.30322266 C232.207927,4.1720371 232.420572,4.06095423 232.65332,3.9699707 C232.886069,3.87898718 233.134683,3.81022159 233.39917,3.76367187 C233.663657,3.71712216 233.935545,3.69384766 234.214844,3.69384766 C234.790367,3.69384766 235.265379,3.76896084 235.639893,3.91918945 C236.014406,4.06941807 236.309569,4.28312036 236.525391,4.56030273 C236.741212,4.83748511 236.891438,5.17390753 236.976074,5.56958008 C237.06071,5.96525263 237.103027,6.40641033 237.103027,6.89306641 L237.103027,10.5429688 L238.213867,10.5429688 L238.213867,11 L232.691406,11 L232.691406,10.5429688 L233.326172,10.5429688 L233.326172,6.89306641 C233.326172,6.45719183 233.313477,6.1006687 233.288086,5.82348633 C233.262695,5.54630395 233.218262,5.32836993 233.154785,5.16967773 C233.091308,5.01098553 233.006674,4.90096059 232.900879,4.83959961 C232.795084,4.77823863 232.661785,4.74755859 232.500977,4.74755859 C232.340168,4.74755859 232.198406,4.78141242 232.075684,4.84912109 C231.952962,4.91682977 231.850342,5.01204366 231.767822,5.13476562 C231.685302,5.25748759 231.623942,5.40348223 231.58374,5.57275391 C231.543538,5.74202559 231.523438,5.92610578 231.523438,6.125 L231.523438,10.5429688 L232.151855,10.5429688 L232.151855,11 L226.635742,11 L226.635742,10.5429688 Z M239.254883,9.33691406 C239.254883,9.01106608 239.316243,8.73071406 239.438965,8.49584961 C239.561687,8.26098515 239.735188,8.06209391 239.959473,7.89916992 C240.183758,7.73624593 240.452472,7.60506235 240.765625,7.50561523 C241.078778,7.40616812 241.426837,7.32893908 241.809814,7.27392578 C242.192792,7.21891249 242.604327,7.18188486 243.044434,7.1628418 C243.48454,7.14379873 243.941567,7.13427734 244.415527,7.13427734 L244.415527,6.77880859 C244.415527,6.23713922 244.3785,5.80338705 244.304443,5.47753906 C244.230387,5.15169108 244.118246,4.9020191 243.968018,4.72851562 C243.817789,4.55501215 243.632651,4.44181342 243.412598,4.38891602 C243.192544,4.33601862 242.936525,4.30957031 242.644531,4.30957031 C242.487955,4.30957031 242.32186,4.3222655 242.14624,4.34765625 C241.970621,4.373047 241.815105,4.4026691 241.679688,4.43652344 C241.87435,4.4576824 242.054198,4.50634728 242.219238,4.58251953 C242.384278,4.65869179 242.526041,4.75390568 242.644531,4.86816406 C242.763021,4.98242245 242.855062,5.1093743 242.920654,5.24902344 C242.986247,5.38867257 243.019043,5.53043548 243.019043,5.67431641 C243.019043,5.85205167 242.97461,6.01920495 242.885742,6.17578125 C242.796875,6.33235755 242.674154,6.4688308 242.517578,6.58520508 C242.361002,6.70157936 242.179037,6.79361945 241.97168,6.86132812 C241.764322,6.9290368 241.542156,6.96289062 241.305176,6.96289062 C241.068195,6.96289062 240.847088,6.9290368 240.641846,6.86132812 C240.436604,6.79361945 240.256755,6.70157936 240.102295,6.58520508 C239.947835,6.4688308 239.826172,6.33235755 239.737305,6.17578125 C239.648437,6.01920495 239.604004,5.85205167 239.604004,5.67431641 C239.604004,5.43733605 239.668538,5.22363376 239.797607,5.03320312 C239.926677,4.84277249 240.102294,4.67456128 240.324463,4.52856445 C240.546632,4.38256763 240.808999,4.25667371 241.111572,4.15087891 C241.414145,4.04508411 241.738931,3.95833367 242.085938,3.890625 C242.432944,3.82291633 242.793699,3.77319352 243.168213,3.74145508 C243.542726,3.70971664 243.916177,3.69384766 244.288574,3.69384766 C244.948734,3.69384766 245.523191,3.73933874 246.011963,3.83032227 C246.500735,3.92130579 246.906981,4.08211148 247.230713,4.31274414 C247.554445,4.5433768 247.796711,4.85864058 247.95752,5.25854492 C248.118328,5.65844927 248.19873,6.16519875 248.19873,6.77880859 L248.19873,9.43847656 C248.19873,9.75586096 248.231526,10.0002433 248.297119,10.1716309 C248.362712,10.3430184 248.484374,10.4287109 248.662109,10.4287109 C248.750977,10.4287109 248.823974,10.4001468 248.881104,10.3430176 C248.938233,10.2858884 248.982666,10.2107752 249.014404,10.1176758 C249.046143,10.0245764 249.068359,9.91666728 249.081055,9.79394531 C249.09375,9.67122334 249.100098,9.54638735 249.100098,9.41943359 L249.100098,8.79101562 L249.665039,8.79101562 L249.665039,9.41943359 C249.665039,9.75797695 249.621664,10.0436186 249.534912,10.2763672 C249.44816,10.5091157 249.297934,10.6974277 249.084229,10.8413086 C248.870523,10.9851895 248.584881,11.0878089 248.227295,11.1491699 C247.869708,11.2105309 247.420087,11.2412109 246.878418,11.2412109 C246.603351,11.2412109 246.346274,11.2263999 246.107178,11.1967773 C245.868081,11.1671548 245.650147,11.1163741 245.453369,11.0444336 C245.256591,10.9724931 245.086264,10.8772792 244.942383,10.7587891 C244.798502,10.6402989 244.684245,10.4921884 244.599609,10.3144531 C244.472656,10.5091156 244.303386,10.6667474 244.091797,10.7873535 C243.880207,10.9079596 243.651694,11.0021155 243.40625,11.0698242 C243.160806,11.1375329 242.91325,11.183024 242.663574,11.2062988 C242.413898,11.2295737 242.185385,11.2412109 241.978027,11.2412109 C241.482908,11.2412109 241.061851,11.1893723 240.714844,11.0856934 C240.367837,10.9820145 240.086427,10.8434253 239.870605,10.6699219 C239.654784,10.4964184 239.49821,10.2943534 239.400879,10.0637207 C239.303548,9.83308804 239.254883,9.59082158 239.254883,9.33691406 L239.254883,9.33691406 Z M242.91748,9.26708984 C242.91748,9.58024245 242.974609,9.83308823 243.088867,10.0256348 C243.203126,10.2181813 243.391437,10.3144531 243.653809,10.3144531 C243.873862,10.3144531 244.055826,10.2351082 244.199707,10.076416 C244.343588,9.91772382 244.415527,9.70507946 244.415527,9.43847656 L244.415527,7.71826172 C244.110838,7.71826172 243.861166,7.74576795 243.666504,7.80078125 C243.471841,7.85579455 243.318441,7.94360291 243.206299,8.06420898 C243.094156,8.18481506 243.017985,8.34456281 242.977783,8.54345703 C242.937581,8.74235125 242.91748,8.98355978 242.91748,9.26708984 L242.91748,9.26708984 Z M251.372559,4.39208984 L250.261719,4.39208984 L250.261719,3.93505859 L251.372559,3.93505859 C251.79997,3.93505859 252.183999,3.86206128 252.524658,3.71606445 C252.865317,3.57006763 253.155191,3.37963985 253.394287,3.14477539 C253.633383,2.90991094 253.816406,2.64648583 253.943359,2.35449219 C254.070313,2.06249854 254.133789,1.77050927 254.133789,1.47851562 L255.149414,1.47851562 L255.149414,3.93505859 L257.193359,3.93505859 L257.193359,4.39208984 L255.149414,4.39208984 L255.149414,8.30224609 C255.149414,8.75504784 255.173747,9.12426615 255.222412,9.40991211 C255.271078,9.69555807 255.340901,9.91878175 255.431885,10.0795898 C255.522868,10.2403979 255.630777,10.3493649 255.755615,10.4064941 C255.880453,10.4636233 256.019042,10.4921875 256.171387,10.4921875 C256.319499,10.4921875 256.463378,10.4593916 256.603027,10.3937988 C256.742676,10.3282061 256.865397,10.2224128 256.971191,10.076416 C257.076986,9.93041919 257.161621,9.73999141 257.225098,9.50512695 C257.288575,9.2702625 257.320312,8.98144703 257.320312,8.63867188 C257.320312,8.55826783 257.318197,8.47469119 257.313965,8.38793945 C257.309733,8.30118772 257.303385,8.21126349 257.294922,8.11816406 L257.828125,8.11816406 C257.84082,8.32975366 257.847168,8.52229731 257.847168,8.69580078 C257.847168,9.22477478 257.774171,9.65535316 257.628174,9.98754883 C257.482177,10.3197445 257.273764,10.5789379 257.00293,10.7651367 C256.732095,10.9513356 256.403078,11.0782874 256.015869,11.1459961 C255.62866,11.2137048 255.19385,11.2475586 254.711426,11.2475586 C254.169756,11.2475586 253.691571,11.194662 253.276855,11.0888672 C252.86214,10.9830724 252.513022,10.8148612 252.229492,10.5842285 C251.945962,10.3535959 251.73226,10.0563169 251.588379,9.69238281 C251.444498,9.3284487 251.372559,8.88623307 251.372559,8.36572266 L251.372559,4.39208984 Z M261.408203,3.29394531 C261.162759,3.29394531 260.925782,3.26961287 260.697266,3.22094727 C260.468749,3.17228166 260.267742,3.09399468 260.094238,2.98608398 C259.920735,2.87817329 259.781088,2.73958418 259.675293,2.5703125 C259.569498,2.40104082 259.516602,2.19368612 259.516602,1.94824219 C259.516602,1.70279825 259.569498,1.49438562 259.675293,1.32299805 C259.781088,1.15161047 259.920735,1.01196343 260.094238,0.904052734 C260.267742,0.796142039 260.468749,0.717855061 260.697266,0.669189453 C260.925782,0.620523845 261.162759,0.596191406 261.408203,0.596191406 C261.649415,0.596191406 261.884276,0.620523845 262.112793,0.669189453 C262.34131,0.717855061 262.542317,0.796142039 262.71582,0.904052734 C262.889324,1.01196343 263.028971,1.15055254 263.134766,1.31982422 C263.24056,1.4890959 263.293457,1.6964506 263.293457,1.94189453 C263.293457,2.18733847 263.24056,2.3957511 263.134766,2.56713867 C263.028971,2.73852625 262.889324,2.87817329 262.71582,2.98608398 C262.542317,3.09399468 262.34131,3.17228166 262.112793,3.22094727 C261.884276,3.26961287 261.649415,3.29394531 261.408203,3.29394531 L261.408203,3.29394531 Z M258.475586,10.5429688 L259.586426,10.5429688 L259.586426,4.39208984 L258.475586,4.39208984 L258.475586,3.93505859 L263.363281,3.93505859 L263.363281,10.5429688 L264.474121,10.5429688 L264.474121,11 L258.475586,11 L258.475586,10.5429688 Z M265.369141,7.47070312 C265.369141,6.92480196 265.468586,6.42122626 265.66748,5.95996094 C265.866375,5.49869561 266.164712,5.0998552 266.5625,4.76342773 C266.960288,4.42700027 267.459632,4.1646331 268.060547,3.97631836 C268.661461,3.78800362 269.363928,3.69384766 270.167969,3.69384766 C270.972009,3.69384766 271.673418,3.78800362 272.272217,3.97631836 C272.871015,4.1646331 273.369301,4.42700027 273.76709,4.76342773 C274.164878,5.0998552 274.463215,5.49869561 274.662109,5.95996094 C274.861004,6.42122626 274.960449,6.92480196 274.960449,7.47070312 C274.960449,8.01660429 274.861004,8.51912205 274.662109,8.97827148 C274.463215,9.43742092 274.164878,9.8352034 273.76709,10.1716309 C273.369301,10.5080583 272.871015,10.7704255 272.272217,10.9587402 C271.673418,11.147055 270.972009,11.2412109 270.167969,11.2412109 C269.363928,11.2412109 268.661461,11.147055 268.060547,10.9587402 C267.459632,10.7704255 266.960288,10.5080583 266.5625,10.1716309 C266.164712,9.8352034 265.866375,9.43742092 265.66748,8.97827148 C265.468586,8.51912205 265.369141,8.01660429 265.369141,7.47070312 L265.369141,7.47070312 Z M270.167969,10.8476562 C270.328777,10.8476562 270.466308,10.7947596 270.580566,10.6889648 C270.694825,10.58317 270.787923,10.4012057 270.859863,10.1430664 C270.931804,9.88492709 270.983642,9.53898329 271.015381,9.10522461 C271.047119,8.67146593 271.062988,8.12663088 271.062988,7.47070312 C271.062988,6.81054357 271.047119,6.26359266 271.015381,5.82983398 C270.983642,5.39607531 270.931804,5.0501315 270.859863,4.79199219 C270.787923,4.53385288 270.694825,4.35188855 270.580566,4.24609375 C270.466308,4.14029895 270.328777,4.08740234 270.167969,4.08740234 C270.002929,4.08740234 269.863282,4.14029895 269.749023,4.24609375 C269.634765,4.35188855 269.541667,4.53385288 269.469727,4.79199219 C269.397786,5.0501315 269.345947,5.39607531 269.314209,5.82983398 C269.282471,6.26359266 269.266602,6.81054357 269.266602,7.47070312 C269.266602,8.12663088 269.282471,8.67146593 269.314209,9.10522461 C269.345947,9.53898329 269.397786,9.88492709 269.469727,10.1430664 C269.541667,10.4012057 269.634765,10.58317 269.749023,10.6889648 C269.863282,10.7947596 270.002929,10.8476562 270.167969,10.8476562 L270.167969,10.8476562 Z M276.033203,10.5429688 L277.144043,10.5429688 L277.144043,4.39208984 L276.033203,4.39208984 L276.033203,3.93505859 L280.920898,3.93505859 L280.920898,4.74755859 C281.056316,4.58251871 281.220295,4.43440821 281.412842,4.30322266 C281.605388,4.1720371 281.818033,4.06095423 282.050781,3.9699707 C282.28353,3.87898718 282.532144,3.81022159 282.796631,3.76367187 C283.061118,3.71712216 283.333006,3.69384766 283.612305,3.69384766 C284.187828,3.69384766 284.66284,3.76896084 285.037354,3.91918945 C285.411867,4.06941807 285.70703,4.28312036 285.922852,4.56030273 C286.138673,4.83748511 286.288899,5.17390753 286.373535,5.56958008 C286.458171,5.96525263 286.500488,6.40641033 286.500488,6.89306641 L286.500488,10.5429688 L287.611328,10.5429688 L287.611328,11 L282.088867,11 L282.088867,10.5429688 L282.723633,10.5429688 L282.723633,6.89306641 C282.723633,6.45719183 282.710938,6.1006687 282.685547,5.82348633 C282.660156,5.54630395 282.615723,5.32836993 282.552246,5.16967773 C282.488769,5.01098553 282.404135,4.90096059 282.29834,4.83959961 C282.192545,4.77823863 282.059246,4.74755859 281.898438,4.74755859 C281.737629,4.74755859 281.595866,4.78141242 281.473145,4.84912109 C281.350423,4.91682977 281.247803,5.01204366 281.165283,5.13476562 C281.082763,5.25748759 281.021403,5.40348223 280.981201,5.57275391 C280.940999,5.74202559 280.920898,5.92610578 280.920898,6.125 L280.920898,10.5429688 L281.549316,10.5429688 L281.549316,11 L276.033203,11 L276.033203,10.5429688 Z M288.652344,9.33691406 C288.652344,9.01106608 288.713704,8.73071406 288.836426,8.49584961 C288.959148,8.26098515 289.132649,8.06209391 289.356934,7.89916992 C289.581219,7.73624593 289.849933,7.60506235 290.163086,7.50561523 C290.476239,7.40616812 290.824298,7.32893908 291.207275,7.27392578 C291.590253,7.21891249 292.001788,7.18188486 292.441895,7.1628418 C292.882001,7.14379873 293.339028,7.13427734 293.812988,7.13427734 L293.812988,6.77880859 C293.812988,6.23713922 293.775961,5.80338705 293.701904,5.47753906 C293.627848,5.15169108 293.515707,4.9020191 293.365479,4.72851562 C293.21525,4.55501215 293.030112,4.44181342 292.810059,4.38891602 C292.590005,4.33601862 292.333986,4.30957031 292.041992,4.30957031 C291.885416,4.30957031 291.719321,4.3222655 291.543701,4.34765625 C291.368082,4.373047 291.212566,4.4026691 291.077148,4.43652344 C291.271811,4.4576824 291.451659,4.50634728 291.616699,4.58251953 C291.781739,4.65869179 291.923502,4.75390568 292.041992,4.86816406 C292.160482,4.98242245 292.252522,5.1093743 292.318115,5.24902344 C292.383708,5.38867257 292.416504,5.53043548 292.416504,5.67431641 C292.416504,5.85205167 292.372071,6.01920495 292.283203,6.17578125 C292.194335,6.33235755 292.071615,6.4688308 291.915039,6.58520508 C291.758463,6.70157936 291.576498,6.79361945 291.369141,6.86132812 C291.161783,6.9290368 290.939617,6.96289062 290.702637,6.96289062 C290.465656,6.96289062 290.244549,6.9290368 290.039307,6.86132812 C289.834065,6.79361945 289.654216,6.70157936 289.499756,6.58520508 C289.345295,6.4688308 289.223633,6.33235755 289.134766,6.17578125 C289.045898,6.01920495 289.001465,5.85205167 289.001465,5.67431641 C289.001465,5.43733605 289.065999,5.22363376 289.195068,5.03320312 C289.324138,4.84277249 289.499755,4.67456128 289.721924,4.52856445 C289.944093,4.38256763 290.20646,4.25667371 290.509033,4.15087891 C290.811606,4.04508411 291.136391,3.95833367 291.483398,3.890625 C291.830405,3.82291633 292.19116,3.77319352 292.565674,3.74145508 C292.940187,3.70971664 293.313637,3.69384766 293.686035,3.69384766 C294.346195,3.69384766 294.920652,3.73933874 295.409424,3.83032227 C295.898196,3.92130579 296.304442,4.08211148 296.628174,4.31274414 C296.951906,4.5433768 297.194172,4.85864058 297.35498,5.25854492 C297.515789,5.65844927 297.596191,6.16519875 297.596191,6.77880859 L297.596191,9.43847656 C297.596191,9.75586096 297.628987,10.0002433 297.69458,10.1716309 C297.760173,10.3430184 297.881835,10.4287109 298.05957,10.4287109 C298.148438,10.4287109 298.221435,10.4001468 298.278564,10.3430176 C298.335694,10.2858884 298.380127,10.2107752 298.411865,10.1176758 C298.443604,10.0245764 298.46582,9.91666728 298.478516,9.79394531 C298.491211,9.67122334 298.497559,9.54638735 298.497559,9.41943359 L298.497559,8.79101562 L299.0625,8.79101562 L299.0625,9.41943359 C299.0625,9.75797695 299.019125,10.0436186 298.932373,10.2763672 C298.845621,10.5091157 298.695395,10.6974277 298.481689,10.8413086 C298.267984,10.9851895 297.982342,11.0878089 297.624756,11.1491699 C297.267169,11.2105309 296.817548,11.2412109 296.275879,11.2412109 C296.000812,11.2412109 295.743735,11.2263999 295.504639,11.1967773 C295.265542,11.1671548 295.047608,11.1163741 294.85083,11.0444336 C294.654052,10.9724931 294.483725,10.8772792 294.339844,10.7587891 C294.195963,10.6402989 294.081706,10.4921884 293.99707,10.3144531 C293.870117,10.5091156 293.700847,10.6667474 293.489258,10.7873535 C293.277668,10.9079596 293.049155,11.0021155 292.803711,11.0698242 C292.558267,11.1375329 292.310711,11.183024 292.061035,11.2062988 C291.811359,11.2295737 291.582846,11.2412109 291.375488,11.2412109 C290.880369,11.2412109 290.459312,11.1893723 290.112305,11.0856934 C289.765298,10.9820145 289.483888,10.8434253 289.268066,10.6699219 C289.052245,10.4964184 288.895671,10.2943534 288.79834,10.0637207 C288.701009,9.83308804 288.652344,9.59082158 288.652344,9.33691406 L288.652344,9.33691406 Z M292.314941,9.26708984 C292.314941,9.58024245 292.37207,9.83308823 292.486328,10.0256348 C292.600587,10.2181813 292.788898,10.3144531 293.05127,10.3144531 C293.271323,10.3144531 293.453287,10.2351082 293.597168,10.076416 C293.741049,9.91772382 293.812988,9.70507946 293.812988,9.43847656 L293.812988,7.71826172 C293.508299,7.71826172 293.258627,7.74576795 293.063965,7.80078125 C292.869302,7.85579455 292.715902,7.94360291 292.60376,8.06420898 C292.491617,8.18481506 292.415446,8.34456281 292.375244,8.54345703 C292.335042,8.74235125 292.314941,8.98355978 292.314941,9.26708984 L292.314941,9.26708984 Z M300.020996,10.5429688 L301.131836,10.5429688 L301.131836,1.859375 L300.020996,1.859375 L300.020996,1.40234375 L304.908691,1.40234375 L304.908691,10.5429688 L306.019531,10.5429688 L306.019531,11 L300.020996,11 L300.020996,10.5429688 Z M183.662109,15.5004883 L182.76709,15.5004883 L182.76709,15.0053711 L189.18457,15.0053711 L189.18457,15.5004883 L188.041992,15.5004883 L189.800293,20.7055664 L190.752441,17.5063477 L190.022461,15.5004883 L189.603516,15.5004883 L189.603516,15.0053711 L195.544922,15.0053711 L195.544922,15.5004883 L194.402344,15.5004883 L196.147949,20.6738281 L197.538086,15.894043 C197.550781,15.8559568 197.557129,15.822103 197.557129,15.7924805 C197.557129,15.7374672 197.528565,15.6919761 197.471436,15.6560059 C197.414306,15.6200356 197.333904,15.5904135 197.230225,15.5671387 C197.126546,15.5438638 197.003826,15.5269369 196.862061,15.5163574 C196.720296,15.5057779 196.564779,15.5004883 196.395508,15.5004883 L196.395508,15.0053711 L199.416992,15.0053711 L199.416992,15.5004883 C199.040363,15.5004883 198.762127,15.5290524 198.582275,15.5861816 C198.402424,15.6433108 198.289225,15.7459302 198.242676,15.894043 L195.843262,24 L193.11377,24 L191.114258,18.4902344 L189.48291,24 L186.759766,24 L183.662109,15.5004883 Z M200.15332,22.3369141 C200.15332,22.0110661 200.21468,21.7307141 200.337402,21.4958496 C200.460124,21.2609852 200.633625,21.0620939 200.85791,20.8991699 C201.082195,20.7362459 201.35091,20.6050623 201.664062,20.5056152 C201.977215,20.4061681 202.325275,20.3289391 202.708252,20.2739258 C203.091229,20.2189125 203.502765,20.1818849 203.942871,20.1628418 C204.382977,20.1437987 204.840004,20.1342773 205.313965,20.1342773 L205.313965,19.7788086 C205.313965,19.2371392 205.276937,18.803387 205.202881,18.4775391 C205.128824,18.1516911 205.016684,17.9020191 204.866455,17.7285156 C204.716226,17.5550122 204.531088,17.4418134 204.311035,17.388916 C204.090982,17.3360186 203.834962,17.3095703 203.542969,17.3095703 C203.386392,17.3095703 203.220297,17.3222655 203.044678,17.3476562 C202.869058,17.373047 202.713542,17.4026691 202.578125,17.4365234 C202.772787,17.4576824 202.952636,17.5063473 203.117676,17.5825195 C203.282716,17.6586918 203.424479,17.7539057 203.542969,17.8681641 C203.661459,17.9824224 203.753499,18.1093743 203.819092,18.2490234 C203.884685,18.3886726 203.91748,18.5304355 203.91748,18.6743164 C203.91748,18.8520517 203.873047,19.0192049 203.78418,19.1757812 C203.695312,19.3323576 203.572592,19.4688308 203.416016,19.5852051 C203.259439,19.7015794 203.077475,19.7936195 202.870117,19.8613281 C202.662759,19.9290368 202.440594,19.9628906 202.203613,19.9628906 C201.966633,19.9628906 201.745525,19.9290368 201.540283,19.8613281 C201.335041,19.7936195 201.155193,19.7015794 201.000732,19.5852051 C200.846272,19.4688308 200.72461,19.3323576 200.635742,19.1757812 C200.546875,19.0192049 200.502441,18.8520517 200.502441,18.6743164 C200.502441,18.4373361 200.566975,18.2236338 200.696045,18.0332031 C200.825115,17.8427725 201.000731,17.6745613 201.2229,17.5285645 C201.445069,17.3825676 201.707437,17.2566737 202.01001,17.1508789 C202.312583,17.0450841 202.637368,16.9583337 202.984375,16.890625 C203.331382,16.8229163 203.692137,16.7731935 204.06665,16.7414551 C204.441164,16.7097166 204.814614,16.6938477 205.187012,16.6938477 C205.847171,16.6938477 206.421628,16.7393387 206.9104,16.8303223 C207.399172,16.9213058 207.805418,17.0821115 208.12915,17.3127441 C208.452882,17.5433768 208.695149,17.8586406 208.855957,18.2585449 C209.016765,18.6584493 209.097168,19.1651988 209.097168,19.7788086 L209.097168,22.4384766 C209.097168,22.755861 209.129964,23.0002433 209.195557,23.1716309 C209.261149,23.3430184 209.382812,23.4287109 209.560547,23.4287109 C209.649415,23.4287109 209.722412,23.4001468 209.779541,23.3430176 C209.83667,23.2858884 209.881103,23.2107752 209.912842,23.1176758 C209.94458,23.0245764 209.966797,22.9166673 209.979492,22.7939453 C209.992188,22.6712233 209.998535,22.5463874 209.998535,22.4194336 L209.998535,21.7910156 L210.563477,21.7910156 L210.563477,22.4194336 C210.563477,22.757977 210.520101,23.0436186 210.43335,23.2763672 C210.346598,23.5091157 210.196372,23.6974277 209.982666,23.8413086 C209.768961,23.9851895 209.483319,24.0878089 209.125732,24.1491699 C208.768146,24.2105309 208.318525,24.2412109 207.776855,24.2412109 C207.501789,24.2412109 207.244711,24.2263999 207.005615,24.1967773 C206.766519,24.1671548 206.548585,24.1163741 206.351807,24.0444336 C206.155028,23.9724931 205.984701,23.8772792 205.84082,23.7587891 C205.696939,23.6402989 205.582683,23.4921884 205.498047,23.3144531 C205.371093,23.5091156 205.201824,23.6667474 204.990234,23.7873535 C204.778645,23.9079596 204.550131,24.0021155 204.304688,24.0698242 C204.059244,24.1375329 203.811687,24.183024 203.562012,24.2062988 C203.312336,24.2295737 203.083823,24.2412109 202.876465,24.2412109 C202.381345,24.2412109 201.960288,24.1893723 201.613281,24.0856934 C201.266274,23.9820145 200.984864,23.8434253 200.769043,23.6699219 C200.553222,23.4964184 200.396648,23.2943534 200.299316,23.0637207 C200.201985,22.833088 200.15332,22.5908216 200.15332,22.3369141 L200.15332,22.3369141 Z M203.815918,22.2670898 C203.815918,22.5802425 203.873046,22.8330882 203.987305,23.0256348 C204.101563,23.2181813 204.289875,23.3144531 204.552246,23.3144531 C204.772299,23.3144531 204.954264,23.2351082 205.098145,23.076416 C205.242025,22.9177238 205.313965,22.7050795 205.313965,22.4384766 L205.313965,20.7182617 C205.009276,20.7182617 204.759604,20.745768 204.564941,20.8007812 C204.370279,20.8557945 204.216879,20.9436029 204.104736,21.064209 C203.992594,21.1848151 203.916423,21.3445628 203.876221,21.543457 C203.836019,21.7423513 203.815918,21.9835598 203.815918,22.2670898 L203.815918,22.2670898 Z M212.270996,17.3920898 L211.160156,17.3920898 L211.160156,16.9350586 L212.270996,16.9350586 C212.698407,16.9350586 213.082436,16.8620613 213.423096,16.7160645 C213.763755,16.5700676 214.053628,16.3796398 214.292725,16.1447754 C214.531821,15.9099109 214.714843,15.6464858 214.841797,15.3544922 C214.968751,15.0624985 215.032227,14.7705093 215.032227,14.4785156 L216.047852,14.4785156 L216.047852,16.9350586 L218.091797,16.9350586 L218.091797,17.3920898 L216.047852,17.3920898 L216.047852,21.3022461 C216.047852,21.7550478 216.072184,22.1242661 216.12085,22.4099121 C216.169515,22.6955581 216.239339,22.9187817 216.330322,23.0795898 C216.421306,23.2403979 216.529215,23.3493649 216.654053,23.4064941 C216.778891,23.4636233 216.91748,23.4921875 217.069824,23.4921875 C217.217937,23.4921875 217.361816,23.4593916 217.501465,23.3937988 C217.641114,23.3282061 217.763834,23.2224128 217.869629,23.076416 C217.975424,22.9304192 218.060058,22.7399914 218.123535,22.505127 C218.187012,22.2702625 218.21875,21.981447 218.21875,21.6386719 C218.21875,21.5582678 218.216634,21.4746912 218.212402,21.3879395 C218.208171,21.3011877 218.201823,21.2112635 218.193359,21.1181641 L218.726562,21.1181641 C218.739258,21.3297537 218.745605,21.5222973 218.745605,21.6958008 C218.745605,22.2247748 218.672608,22.6553532 218.526611,22.9875488 C218.380615,23.3197445 218.172202,23.5789379 217.901367,23.7651367 C217.630533,23.9513356 217.301516,24.0782874 216.914307,24.1459961 C216.527098,24.2137048 216.092288,24.2475586 215.609863,24.2475586 C215.068194,24.2475586 214.590009,24.194662 214.175293,24.0888672 C213.760577,23.9830724 213.41146,23.8148612 213.12793,23.5842285 C212.8444,23.3535959 212.630697,23.0563169 212.486816,22.6923828 C212.342935,22.3284487 212.270996,21.8862331 212.270996,21.3657227 L212.270996,17.3920898 Z M219.431152,20.4008789 C219.431152,19.8338188 219.547525,19.3217796 219.780273,18.8647461 C220.013022,18.4077126 220.335691,18.0183935 220.748291,17.6967773 C221.160891,17.3751612 221.649655,17.127605 222.2146,16.9541016 C222.779544,16.7805981 223.392087,16.6938477 224.052246,16.6938477 C224.560061,16.6938477 225.020262,16.7446284 225.432861,16.8461914 C225.845461,16.9477544 226.211506,17.0863435 226.531006,17.2619629 C226.850506,17.4375823 227.125569,17.6459949 227.356201,17.887207 C227.586834,18.1284192 227.777262,18.3886705 227.92749,18.6679688 C228.077719,18.947267 228.188802,19.2403142 228.260742,19.5471191 C228.332683,19.8539241 228.368652,20.1617823 228.368652,20.4707031 L223.277832,20.4707031 C223.277832,21.1181673 223.306396,21.6450175 223.363525,22.0512695 C223.420655,22.4575216 223.511637,22.7759591 223.636475,23.0065918 C223.761312,23.2372245 223.922118,23.3948563 224.118896,23.4794922 C224.315675,23.564128 224.55371,23.6064453 224.833008,23.6064453 C225.188478,23.6064453 225.522785,23.5620122 225.835938,23.4731445 C226.14909,23.3842769 226.429442,23.258383 226.677002,23.095459 C226.924562,22.932535 227.130859,22.7357596 227.295898,22.505127 C227.460938,22.2744943 227.573079,22.0153009 227.632324,21.7275391 L228.229004,21.7275391 C228.186686,22.1210957 228.066082,22.4733871 227.867188,22.7844238 C227.668293,23.0954605 227.404868,23.3588856 227.076904,23.574707 C226.74894,23.7905284 226.363853,23.9555658 225.921631,24.0698242 C225.479409,24.1840826 224.995934,24.2412109 224.471191,24.2412109 C223.645992,24.2412109 222.919193,24.1555184 222.290771,23.9841309 C221.66235,23.8127433 221.136558,23.5630713 220.713379,23.2351074 C220.2902,22.9071435 219.970704,22.5051293 219.754883,22.0290527 C219.539061,21.5529761 219.431152,21.010257 219.431152,20.4008789 L219.431152,20.4008789 Z M225.061523,19.8295898 C225.048828,19.3006158 225.023438,18.8605161 224.985352,18.5092773 C224.947265,18.1580386 224.892253,17.8766287 224.820312,17.6650391 C224.748372,17.4534495 224.659506,17.304281 224.553711,17.2175293 C224.447916,17.1307776 224.320964,17.0874023 224.172852,17.0874023 C224.024739,17.0874023 223.896729,17.1307776 223.788818,17.2175293 C223.680908,17.304281 223.590983,17.4534495 223.519043,17.6650391 C223.447103,17.8766287 223.39209,18.1580386 223.354004,18.5092773 C223.315918,18.8605161 223.292643,19.3006158 223.28418,19.8295898 L225.061523,19.8295898 Z M229.447754,23.5429688 L230.558594,23.5429688 L230.558594,17.3920898 L229.447754,17.3920898 L229.447754,16.9350586 L234.335449,16.9350586 L234.335449,17.7475586 C234.470867,17.5825187 234.631672,17.4354661 234.817871,17.3063965 C235.00407,17.1773268 235.210367,17.0673019 235.436768,16.9763184 C235.663168,16.8853348 235.906493,16.8155113 236.166748,16.7668457 C236.427003,16.7181801 236.696776,16.6938477 236.976074,16.6938477 C237.268068,16.6938477 237.530435,16.7298173 237.763184,16.8017578 C237.995932,16.8736983 238.194823,16.972086 238.359863,17.0969238 C238.524903,17.2217617 238.650797,17.3698722 238.737549,17.5412598 C238.824301,17.7126473 238.867676,17.8977855 238.867676,18.0966797 C238.867676,18.2871103 238.820069,18.4669588 238.724854,18.6362305 C238.629638,18.8055021 238.498455,18.9536126 238.331299,19.0805664 C238.164143,19.2075202 237.968426,19.3080237 237.744141,19.3820801 C237.519856,19.4561364 237.280763,19.4931641 237.026855,19.4931641 C236.772948,19.4931641 236.533855,19.4561364 236.30957,19.3820801 C236.085285,19.3080237 235.889568,19.2075202 235.722412,19.0805664 C235.555256,18.9536126 235.423015,18.8055021 235.325684,18.6362305 C235.228352,18.4669588 235.179688,18.2871103 235.179688,18.0966797 C235.179688,17.9993485 235.193441,17.9030766 235.220947,17.8078613 C235.248454,17.712646 235.285482,17.6227218 235.332031,17.5380859 C235.243164,17.5804039 235.140544,17.6449377 235.02417,17.7316895 C234.907796,17.8184412 234.798829,17.9252923 234.697266,18.0522461 C234.595703,18.1791999 234.51001,18.3262524 234.440186,18.4934082 C234.370361,18.660564 234.335449,18.8414704 234.335449,19.0361328 L234.335449,23.5429688 L235.566895,23.5429688 L235.566895,24 L229.447754,24 L229.447754,23.5429688 Z M244.421875,23.4985352 L245.539062,23.4985352 L245.539062,15.5004883 L244.421875,15.5004883 L244.421875,15.0053711 L250.839355,15.0053711 C251.389488,15.0053711 251.901528,15.038167 252.375488,15.1037598 C252.849449,15.1693525 253.262043,15.2857251 253.613281,15.4528809 C253.96452,15.6200366 254.24064,15.8464341 254.44165,16.1320801 C254.642661,16.417726 254.743164,16.7784809 254.743164,17.2143555 C254.743164,17.569826 254.672283,17.8755684 254.530518,18.1315918 C254.388753,18.3876152 254.167645,18.5992016 253.867188,18.7663574 C253.56673,18.9335132 253.178469,19.0594071 252.702393,19.144043 C252.226316,19.2286788 251.656091,19.273112 250.991699,19.2773438 C251.351402,19.2815755 251.708983,19.2932128 252.064453,19.3122559 C252.419924,19.3312989 252.758462,19.3683265 253.080078,19.4233398 C253.401694,19.4783531 253.700031,19.557698 253.975098,19.661377 C254.250164,19.7650559 254.489257,19.9004712 254.692383,20.067627 C254.895509,20.2347827 255.054199,20.4410795 255.168457,20.6865234 C255.282715,20.9319674 255.339844,21.2239566 255.339844,21.5625 C255.339844,22.0449243 255.248862,22.4437647 255.066895,22.7590332 C254.884927,23.0743017 254.62256,23.3239737 254.279785,23.5080566 C253.93701,23.6921396 253.517011,23.8201494 253.019775,23.8920898 C252.52254,23.9640303 251.956546,24 251.321777,24 L244.421875,24 L244.421875,23.4985352 Z M249.912598,19.0805664 C250.103028,19.0805664 250.280761,19.0572919 250.445801,19.0107422 C250.610841,18.9641925 250.754719,18.8742682 250.877441,18.7409668 C251.000163,18.6076653 251.096435,18.4214693 251.16626,18.182373 C251.236084,17.9432768 251.270996,17.6333027 251.270996,17.2524414 C251.270996,16.8715801 251.236084,16.5647798 251.16626,16.3320312 C251.096435,16.0992827 251.000163,15.9183763 250.877441,15.7893066 C250.754719,15.660237 250.610841,15.5734866 250.445801,15.5290527 C250.280761,15.4846189 250.103028,15.4624023 249.912598,15.4624023 L249.912598,19.0805664 Z M249.912598,23.4985352 C250.145346,23.4985352 250.346353,23.4784344 250.515625,23.4382324 C250.684897,23.3980304 250.825602,23.3165696 250.937744,23.1938477 C251.049887,23.0711257 251.133463,22.894451 251.188477,22.6638184 C251.24349,22.4331857 251.270996,22.1274433 251.270996,21.746582 C251.270996,20.9848595 251.159913,20.4294451 250.937744,20.0803223 C250.715575,19.7311994 250.373863,19.5566406 249.912598,19.5566406 L249.912598,23.4985352 Z M256.856934,22.3369141 C256.856934,22.0110661 256.918294,21.7307141 257.041016,21.4958496 C257.163738,21.2609852 257.337238,21.0620939 257.561523,20.8991699 C257.785808,20.7362459 258.054523,20.6050623 258.367676,20.5056152 C258.680828,20.4061681 259.028888,20.3289391 259.411865,20.2739258 C259.794842,20.2189125 260.206378,20.1818849 260.646484,20.1628418 C261.086591,20.1437987 261.543617,20.1342773 262.017578,20.1342773 L262.017578,19.7788086 C262.017578,19.2371392 261.980551,18.803387 261.906494,18.4775391 C261.832438,18.1516911 261.720297,17.9020191 261.570068,17.7285156 C261.41984,17.5550122 261.234702,17.4418134 261.014648,17.388916 C260.794595,17.3360186 260.538576,17.3095703 260.246582,17.3095703 C260.090006,17.3095703 259.92391,17.3222655 259.748291,17.3476562 C259.572672,17.373047 259.417156,17.4026691 259.281738,17.4365234 C259.476401,17.4576824 259.656249,17.5063473 259.821289,17.5825195 C259.986329,17.6586918 260.128092,17.7539057 260.246582,17.8681641 C260.365072,17.9824224 260.457112,18.1093743 260.522705,18.2490234 C260.588298,18.3886726 260.621094,18.5304355 260.621094,18.6743164 C260.621094,18.8520517 260.576661,19.0192049 260.487793,19.1757812 C260.398925,19.3323576 260.276205,19.4688308 260.119629,19.5852051 C259.963053,19.7015794 259.781088,19.7936195 259.57373,19.8613281 C259.366373,19.9290368 259.144207,19.9628906 258.907227,19.9628906 C258.670246,19.9628906 258.449138,19.9290368 258.243896,19.8613281 C258.038655,19.7936195 257.858806,19.7015794 257.704346,19.5852051 C257.549885,19.4688308 257.428223,19.3323576 257.339355,19.1757812 C257.250488,19.0192049 257.206055,18.8520517 257.206055,18.6743164 C257.206055,18.4373361 257.270589,18.2236338 257.399658,18.0332031 C257.528728,17.8427725 257.704345,17.6745613 257.926514,17.5285645 C258.148683,17.3825676 258.41105,17.2566737 258.713623,17.1508789 C259.016196,17.0450841 259.340981,16.9583337 259.687988,16.890625 C260.034995,16.8229163 260.39575,16.7731935 260.770264,16.7414551 C261.144777,16.7097166 261.518227,16.6938477 261.890625,16.6938477 C262.550785,16.6938477 263.125242,16.7393387 263.614014,16.8303223 C264.102786,16.9213058 264.509032,17.0821115 264.832764,17.3127441 C265.156496,17.5433768 265.398762,17.8586406 265.55957,18.2585449 C265.720378,18.6584493 265.800781,19.1651988 265.800781,19.7788086 L265.800781,22.4384766 C265.800781,22.755861 265.833577,23.0002433 265.89917,23.1716309 C265.964763,23.3430184 266.086425,23.4287109 266.26416,23.4287109 C266.353028,23.4287109 266.426025,23.4001468 266.483154,23.3430176 C266.540283,23.2858884 266.584717,23.2107752 266.616455,23.1176758 C266.648194,23.0245764 266.67041,22.9166673 266.683105,22.7939453 C266.695801,22.6712233 266.702148,22.5463874 266.702148,22.4194336 L266.702148,21.7910156 L267.26709,21.7910156 L267.26709,22.4194336 C267.26709,22.757977 267.223715,23.0436186 267.136963,23.2763672 C267.050211,23.5091157 266.899985,23.6974277 266.686279,23.8413086 C266.472574,23.9851895 266.186932,24.0878089 265.829346,24.1491699 C265.471759,24.2105309 265.022138,24.2412109 264.480469,24.2412109 C264.205402,24.2412109 263.948325,24.2263999 263.709229,24.1967773 C263.470132,24.1671548 263.252198,24.1163741 263.05542,24.0444336 C262.858642,23.9724931 262.688315,23.8772792 262.544434,23.7587891 C262.400553,23.6402989 262.286296,23.4921884 262.20166,23.3144531 C262.074706,23.5091156 261.905437,23.6667474 261.693848,23.7873535 C261.482258,23.9079596 261.253745,24.0021155 261.008301,24.0698242 C260.762857,24.1375329 260.515301,24.183024 260.265625,24.2062988 C260.015949,24.2295737 259.787436,24.2412109 259.580078,24.2412109 C259.084958,24.2412109 258.663901,24.1893723 258.316895,24.0856934 C257.969888,23.9820145 257.688478,23.8434253 257.472656,23.6699219 C257.256835,23.4964184 257.100261,23.2943534 257.00293,23.0637207 C256.905598,22.833088 256.856934,22.5908216 256.856934,22.3369141 L256.856934,22.3369141 Z M260.519531,22.2670898 C260.519531,22.5802425 260.57666,22.8330882 260.690918,23.0256348 C260.805176,23.2181813 260.993488,23.3144531 261.255859,23.3144531 C261.475913,23.3144531 261.657877,23.2351082 261.801758,23.076416 C261.945639,22.9177238 262.017578,22.7050795 262.017578,22.4384766 L262.017578,20.7182617 C261.712889,20.7182617 261.463217,20.745768 261.268555,20.8007812 C261.073892,20.8557945 260.920492,20.9436029 260.80835,21.064209 C260.696207,21.1848151 260.620036,21.3445628 260.579834,21.543457 C260.539632,21.7423513 260.519531,21.9835598 260.519531,22.2670898 L260.519531,22.2670898 Z M268.225586,23.5429688 L269.336426,23.5429688 L269.336426,17.3920898 L268.225586,17.3920898 L268.225586,16.9350586 L273.113281,16.9350586 L273.113281,17.7475586 C273.248699,17.5825187 273.412678,17.4344082 273.605225,17.3032227 C273.797771,17.1720371 274.010416,17.0609542 274.243164,16.9699707 C274.475913,16.8789872 274.724527,16.8102216 274.989014,16.7636719 C275.253501,16.7171222 275.525389,16.6938477 275.804688,16.6938477 C276.380211,16.6938477 276.855223,16.7689608 277.229736,16.9191895 C277.60425,17.0694181 277.899413,17.2831204 278.115234,17.5603027 C278.331056,17.8374851 278.481282,18.1739075 278.565918,18.5695801 C278.650554,18.9652526 278.692871,19.4064103 278.692871,19.8930664 L278.692871,23.5429688 L279.803711,23.5429688 L279.803711,24 L274.28125,24 L274.28125,23.5429688 L274.916016,23.5429688 L274.916016,19.8930664 C274.916016,19.4571918 274.90332,19.1006687 274.87793,18.8234863 C274.852539,18.546304 274.808106,18.3283699 274.744629,18.1696777 C274.681152,18.0109855 274.596517,17.9009606 274.490723,17.8395996 C274.384928,17.7782386 274.251628,17.7475586 274.09082,17.7475586 C273.930012,17.7475586 273.788249,17.7814124 273.665527,17.8491211 C273.542805,17.9168298 273.440186,18.0120437 273.357666,18.1347656 C273.275146,18.2574876 273.213786,18.4034822 273.173584,18.5727539 C273.133382,18.7420256 273.113281,18.9261058 273.113281,19.125 L273.113281,23.5429688 L273.741699,23.5429688 L273.741699,24 L268.225586,24 L268.225586,23.5429688 Z M280.520996,23.5429688 L281.631836,23.5429688 L281.631836,14.859375 L280.520996,14.859375 L280.520996,14.4023438 L285.408691,14.4023438 L285.408691,20.2802734 C285.527182,20.1702468 285.668944,20.0358895 285.833984,19.8771973 C285.999024,19.7185051 286.172525,19.5513518 286.354492,19.3757324 C286.536459,19.2001131 286.717366,19.0234384 286.897217,18.8457031 C287.077068,18.6679679 287.241047,18.5050463 287.38916,18.3569336 C287.537273,18.2088209 287.659993,18.081869 287.757324,17.9760742 C287.854655,17.8702794 287.9139,17.8004559 287.935059,17.7666016 C287.947754,17.7496744 287.955159,17.7359213 287.957275,17.7253418 C287.959391,17.7147623 287.960449,17.7031251 287.960449,17.6904297 C287.960449,17.6354164 287.931885,17.5888674 287.874756,17.5507812 C287.817627,17.5126951 287.737224,17.4820151 287.633545,17.4587402 C287.529866,17.4354654 287.407146,17.4185385 287.265381,17.407959 C287.123616,17.3973795 286.9681,17.3920898 286.798828,17.3920898 L286.798828,16.9350586 L290.658203,16.9350586 L290.658203,17.3920898 C290.480468,17.3920898 290.305909,17.3963216 290.134521,17.4047852 C289.963134,17.4132487 289.80127,17.4312336 289.648926,17.4587402 C289.496581,17.4862469 289.355876,17.5264483 289.226807,17.5793457 C289.097737,17.6322431 288.984538,17.7031246 288.887207,17.7919922 C288.77718,17.8893234 288.640707,18.0162753 288.477783,18.1728516 C288.314859,18.3294279 288.136069,18.5029287 287.941406,18.6933594 C287.746744,18.88379 287.542563,19.0837392 287.328857,19.2932129 C287.115152,19.5026866 286.906739,19.7110992 286.703613,19.918457 C286.826335,19.9099934 286.94694,19.9036459 287.06543,19.8994141 C287.18392,19.8951823 287.298177,19.8930664 287.408203,19.8930664 C287.903323,19.8930664 288.327554,19.9269202 288.680908,19.9946289 C289.034263,20.0623376 289.324136,20.1776522 289.550537,20.3405762 C289.776938,20.5035002 289.941975,20.7193183 290.045654,20.9880371 C290.149333,21.2567559 290.201172,21.5900045 290.201172,21.987793 L290.201172,22.0861816 L290.201172,22.1750488 C290.201172,22.2067873 290.200114,22.2459308 290.197998,22.2924805 C290.195882,22.3390302 290.192708,22.3982744 290.188477,22.4702148 C290.184245,22.5421553 290.181071,22.6013995 290.178955,22.6479492 C290.176839,22.6944989 290.175781,22.7347004 290.175781,22.7685547 L290.175781,22.8637695 L290.175781,22.965332 C290.175781,23.0795904 290.195882,23.1758622 290.236084,23.2541504 C290.276286,23.3324385 290.342936,23.371582 290.436035,23.371582 C290.499512,23.371582 290.554525,23.3504234 290.601074,23.3081055 C290.647624,23.2657875 290.686767,23.1949061 290.718506,23.095459 C290.750244,22.9960119 290.773519,22.8637704 290.78833,22.6987305 C290.803141,22.5336906 290.810547,22.3284517 290.810547,22.0830078 L291.34375,22.0830078 L291.34375,22.2924805 C291.34375,22.7114279 291.297201,23.0489082 291.204102,23.3049316 C291.111002,23.5609551 290.96395,23.7587884 290.762939,23.8984375 C290.561929,24.0380866 290.301678,24.1301267 289.982178,24.1745605 C289.662677,24.2189944 289.278648,24.2412109 288.830078,24.2412109 C288.330727,24.2412109 287.925539,24.1957199 287.614502,24.1047363 C287.303465,24.0137528 287.061199,23.8793954 286.887695,23.7016602 C286.714192,23.5239249 286.596761,23.303875 286.5354,23.0415039 C286.474039,22.7791328 286.443359,22.4765642 286.443359,22.1337891 C286.443359,21.7106099 286.420085,21.3667819 286.373535,21.1022949 C286.326985,20.8378079 286.22754,20.6547857 286.075195,20.5532227 C285.939778,20.6928718 285.813884,20.8208816 285.69751,20.9372559 C285.581135,21.0536301 285.484864,21.1541337 285.408691,21.2387695 L285.408691,23.5429688 L286.202148,23.5429688 L286.202148,24 L280.520996,24 L280.520996,23.5429688 Z M187.502441,36.4985352 C187.845217,36.4985352 188.108642,36.4752606 188.292725,36.4287109 C188.476808,36.3821612 188.594238,36.2975267 188.64502,36.1748047 L191.914062,28.0053711 L194.700684,28.0053711 L198.52832,36.4985352 L199.632812,36.4985352 L199.632812,37 L192.43457,37 L192.43457,36.4985352 L193.659668,36.4985352 L192.783691,34.3085938 L189.990723,34.3085938 L189.248047,36.1557617 C189.243815,36.1684571 189.241699,36.185384 189.241699,36.206543 C189.241699,36.2657881 189.270263,36.313395 189.327393,36.3493652 C189.384522,36.3853355 189.464925,36.4149576 189.568604,36.4382324 C189.672282,36.4615073 189.795003,36.4773763 189.936768,36.4858398 C190.078533,36.4943034 190.234049,36.4985352 190.40332,36.4985352 L190.40332,37 L187.502441,37 L187.502441,36.4985352 Z M192.586914,33.8071289 L191.361816,30.8110352 L190.1875,33.8071289 L192.586914,33.8071289 Z M200.108887,36.5429688 L201.219727,36.5429688 L201.219727,27.859375 L200.108887,27.859375 L200.108887,27.4023437 L204.996582,27.4023437 L204.996582,36.5429688 L206.107422,36.5429688 L206.107422,37 L200.108887,37 L200.108887,36.5429688 Z M206.945312,36.5429688 L208.056152,36.5429688 L208.056152,27.859375 L206.945312,27.859375 L206.945312,27.4023437 L211.833008,27.4023437 L211.833008,36.5429688 L212.943848,36.5429688 L212.943848,37 L206.945312,37 L206.945312,36.5429688 Z M216.714355,29.2939453 C216.468912,29.2939453 216.231935,29.2696129 216.003418,29.2209473 C215.774901,29.1722817 215.573894,29.0939947 215.400391,28.986084 C215.226887,28.8781733 215.08724,28.7395842 214.981445,28.5703125 C214.875651,28.4010408 214.822754,28.1936861 214.822754,27.9482422 C214.822754,27.7027983 214.875651,27.4943856 214.981445,27.322998 C215.08724,27.1516105 215.226887,27.0119634 215.400391,26.9040527 C215.573894,26.796142 215.774901,26.7178551 216.003418,26.6691895 C216.231935,26.6205238 216.468912,26.5961914 216.714355,26.5961914 C216.955568,26.5961914 217.190429,26.6205238 217.418945,26.6691895 C217.647462,26.7178551 217.848469,26.796142 218.021973,26.9040527 C218.195476,27.0119634 218.335123,27.1505525 218.440918,27.3198242 C218.546713,27.4890959 218.599609,27.6964506 218.599609,27.9418945 C218.599609,28.1873385 218.546713,28.3957511 218.440918,28.5671387 C218.335123,28.7385262 218.195476,28.8781733 218.021973,28.986084 C217.848469,29.0939947 217.647462,29.1722817 217.418945,29.2209473 C217.190429,29.2696129 216.955568,29.2939453 216.714355,29.2939453 L216.714355,29.2939453 Z M213.781738,36.5429688 L214.892578,36.5429688 L214.892578,30.3920898 L213.781738,30.3920898 L213.781738,29.9350586 L218.669434,29.9350586 L218.669434,36.5429688 L219.780273,36.5429688 L219.780273,37 L213.781738,37 L213.781738,36.5429688 Z M220.941895,35.3369141 C220.941895,35.0110661 221.003255,34.7307141 221.125977,34.4958496 C221.248699,34.2609852 221.422199,34.0620939 221.646484,33.8991699 C221.870769,33.7362459 222.139484,33.6050623 222.452637,33.5056152 C222.765789,33.4061681 223.113849,33.3289391 223.496826,33.2739258 C223.879803,33.2189125 224.291339,33.1818849 224.731445,33.1628418 C225.171552,33.1437987 225.628578,33.1342773 226.102539,33.1342773 L226.102539,32.7788086 C226.102539,32.2371392 226.065511,31.803387 225.991455,31.4775391 C225.917399,31.1516911 225.805258,30.9020191 225.655029,30.7285156 C225.504801,30.5550122 225.319663,30.4418134 225.099609,30.388916 C224.879556,30.3360186 224.623537,30.3095703 224.331543,30.3095703 C224.174967,30.3095703 224.008871,30.3222655 223.833252,30.3476562 C223.657633,30.373047 223.502117,30.4026691 223.366699,30.4365234 C223.561362,30.4576824 223.74121,30.5063473 223.90625,30.5825195 C224.07129,30.6586918 224.213053,30.7539057 224.331543,30.8681641 C224.450033,30.9824224 224.542073,31.1093743 224.607666,31.2490234 C224.673259,31.3886726 224.706055,31.5304355 224.706055,31.6743164 C224.706055,31.8520517 224.661622,32.0192049 224.572754,32.1757812 C224.483886,32.3323576 224.361166,32.4688308 224.20459,32.5852051 C224.048014,32.7015794 223.866049,32.7936195 223.658691,32.8613281 C223.451334,32.9290368 223.229168,32.9628906 222.992188,32.9628906 C222.755207,32.9628906 222.534099,32.9290368 222.328857,32.8613281 C222.123616,32.7936195 221.943767,32.7015794 221.789307,32.5852051 C221.634846,32.4688308 221.513184,32.3323576 221.424316,32.1757812 C221.335449,32.0192049 221.291016,31.8520517 221.291016,31.6743164 C221.291016,31.4373361 221.355549,31.2236338 221.484619,31.0332031 C221.613689,30.8427725 221.789306,30.6745613 222.011475,30.5285645 C222.233644,30.3825676 222.496011,30.2566737 222.798584,30.1508789 C223.101157,30.0450841 223.425942,29.9583337 223.772949,29.890625 C224.119956,29.8229163 224.480711,29.7731935 224.855225,29.7414551 C225.229738,29.7097166 225.603188,29.6938477 225.975586,29.6938477 C226.635745,29.6938477 227.210203,29.7393387 227.698975,29.8303223 C228.187747,29.9213058 228.593993,30.0821115 228.917725,30.3127441 C229.241457,30.5433768 229.483723,30.8586406 229.644531,31.2585449 C229.805339,31.6584493 229.885742,32.1651988 229.885742,32.7788086 L229.885742,35.4384766 C229.885742,35.755861 229.918538,36.0002433 229.984131,36.1716309 C230.049724,36.3430184 230.171386,36.4287109 230.349121,36.4287109 C230.437989,36.4287109 230.510986,36.4001468 230.568115,36.3430176 C230.625244,36.2858884 230.669678,36.2107752 230.701416,36.1176758 C230.733154,36.0245764 230.755371,35.9166673 230.768066,35.7939453 C230.780762,35.6712233 230.787109,35.5463874 230.787109,35.4194336 L230.787109,34.7910156 L231.352051,34.7910156 L231.352051,35.4194336 C231.352051,35.757977 231.308676,36.0436186 231.221924,36.2763672 C231.135172,36.5091157 230.984946,36.6974277 230.77124,36.8413086 C230.557535,36.9851895 230.271893,37.0878089 229.914307,37.1491699 C229.55672,37.2105309 229.107099,37.2412109 228.56543,37.2412109 C228.290363,37.2412109 228.033286,37.2263999 227.794189,37.1967773 C227.555093,37.1671548 227.337159,37.1163741 227.140381,37.0444336 C226.943603,36.9724931 226.773275,36.8772792 226.629395,36.7587891 C226.485514,36.6402989 226.371257,36.4921884 226.286621,36.3144531 C226.159667,36.5091156 225.990398,36.6667474 225.778809,36.7873535 C225.567219,36.9079596 225.338706,37.0021155 225.093262,37.0698242 C224.847818,37.1375329 224.600262,37.183024 224.350586,37.2062988 C224.10091,37.2295737 223.872397,37.2412109 223.665039,37.2412109 C223.169919,37.2412109 222.748862,37.1893723 222.401855,37.0856934 C222.054849,36.9820145 221.773439,36.8434253 221.557617,36.6699219 C221.341796,36.4964184 221.185222,36.2943534 221.087891,36.0637207 C220.990559,35.833088 220.941895,35.5908216 220.941895,35.3369141 L220.941895,35.3369141 Z M224.604492,35.2670898 C224.604492,35.5802425 224.661621,35.8330882 224.775879,36.0256348 C224.890137,36.2181813 225.078449,36.3144531 225.34082,36.3144531 C225.560873,36.3144531 225.742838,36.2351082 225.886719,36.076416 C226.0306,35.9177238 226.102539,35.7050795 226.102539,35.4384766 L226.102539,33.7182617 C225.79785,33.7182617 225.548178,33.745768 225.353516,33.8007812 C225.158853,33.8557945 225.005453,33.9436029 224.893311,34.064209 C224.781168,34.1848151 224.704997,34.3445628 224.664795,34.543457 C224.624593,34.7423513 224.604492,34.9835598 224.604492,35.2670898 L224.604492,35.2670898 Z M232.310547,36.5429688 L233.421387,36.5429688 L233.421387,30.3920898 L232.310547,30.3920898 L232.310547,29.9350586 L237.198242,29.9350586 L237.198242,30.7475586 C237.33366,30.5825187 237.497639,30.4344082 237.690186,30.3032227 C237.882732,30.1720371 238.095376,30.0609542 238.328125,29.9699707 C238.560874,29.8789872 238.809488,29.8102216 239.073975,29.7636719 C239.338462,29.7171222 239.61035,29.6938477 239.889648,29.6938477 C240.465172,29.6938477 240.940184,29.7689608 241.314697,29.9191895 C241.689211,30.0694181 241.984374,30.2831204 242.200195,30.5603027 C242.416017,30.8374851 242.566243,31.1739075 242.650879,31.5695801 C242.735515,31.9652526 242.777832,32.4064103 242.777832,32.8930664 L242.777832,36.5429688 L243.888672,36.5429688 L243.888672,37 L238.366211,37 L238.366211,36.5429688 L239.000977,36.5429688 L239.000977,32.8930664 C239.000977,32.4571918 238.988281,32.1006687 238.962891,31.8234863 C238.9375,31.546304 238.893067,31.3283699 238.82959,31.1696777 C238.766113,31.0109855 238.681478,30.9009606 238.575684,30.8395996 C238.469889,30.7782386 238.336589,30.7475586 238.175781,30.7475586 C238.014973,30.7475586 237.87321,30.7814124 237.750488,30.8491211 C237.627766,30.9168298 237.525147,31.0120437 237.442627,31.1347656 C237.360107,31.2574876 237.298747,31.4034822 237.258545,31.5727539 C237.218343,31.7420256 237.198242,31.9261058 237.198242,32.125 L237.198242,36.5429688 L237.82666,36.5429688 L237.82666,37 L232.310547,37 L232.310547,36.5429688 Z M244.663086,33.4008789 C244.663086,32.8465142 244.775227,32.3408226 244.999512,31.8837891 C245.223797,31.4267555 245.533771,31.0363786 245.929443,30.7126465 C246.325116,30.3889144 246.79378,30.1381845 247.335449,29.9604492 C247.877119,29.782714 248.467445,29.6938477 249.106445,29.6938477 C249.910486,29.6938477 250.600258,29.7583815 251.175781,29.8874512 C251.751305,30.0165208 252.224201,30.184732 252.594482,30.3920898 C252.964764,30.5994477 253.236653,30.8321927 253.410156,31.090332 C253.58366,31.3484713 253.67041,31.6044909 253.67041,31.8583984 C253.67041,32.0445973 253.624919,32.220214 253.533936,32.3852539 C253.442952,32.5502938 253.318116,32.6941726 253.159424,32.8168945 C253.000732,32.9396165 252.815594,33.0369463 252.604004,33.1088867 C252.392414,33.1808272 252.163901,33.2167969 251.918457,33.2167969 C251.673013,33.2167969 251.442384,33.1818851 251.226562,33.1120605 C251.010741,33.042236 250.823487,32.9470221 250.664795,32.826416 C250.506103,32.7058099 250.380209,32.565105 250.287109,32.4042969 C250.19401,32.2434888 250.147461,32.0699879 250.147461,31.8837891 C250.147461,31.7102856 250.18872,31.5463061 250.27124,31.3918457 C250.35376,31.2373853 250.468017,31.1009121 250.614014,30.9824219 C250.76001,30.8639317 250.931396,30.7666019 251.128174,30.6904297 C251.324952,30.6142574 251.537597,30.5698243 251.766113,30.5571289 C251.524901,30.4682613 251.286866,30.3994957 251.052002,30.3508301 C250.817137,30.3021645 250.600261,30.277832 250.401367,30.277832 C250.075519,30.277832 249.794109,30.3212072 249.557129,30.407959 C249.320149,30.4947107 249.124431,30.6555164 248.969971,30.8903809 C248.81551,31.1252453 248.700196,31.4500305 248.624023,31.8647461 C248.547851,32.2794617 248.509766,32.8147754 248.509766,33.4707031 C248.509766,34.1181673 248.53833,34.6450175 248.595459,35.0512695 C248.652588,35.4575216 248.74357,35.7759591 248.868408,36.0065918 C248.993246,36.2372245 249.154052,36.3948563 249.35083,36.4794922 C249.547608,36.564128 249.785643,36.6064453 250.064941,36.6064453 C250.420412,36.6064453 250.754718,36.5620122 251.067871,36.4731445 C251.381024,36.3842769 251.661376,36.258383 251.908936,36.095459 C252.156495,35.932535 252.362792,35.7357596 252.527832,35.505127 C252.692872,35.2744943 252.805013,35.0153009 252.864258,34.7275391 L253.460938,34.7275391 C253.41862,35.1210957 253.298015,35.4733871 253.099121,35.7844238 C252.900227,36.0954605 252.636802,36.3588856 252.308838,36.574707 C251.980874,36.7905284 251.595787,36.9555658 251.153564,37.0698242 C250.711342,37.1840826 250.227867,37.2412109 249.703125,37.2412109 C248.877926,37.2412109 248.151126,37.1555184 247.522705,36.9841309 C246.894284,36.8127433 246.368492,36.5630713 245.945312,36.2351074 C245.522133,35.9071435 245.202638,35.5051293 244.986816,35.0290527 C244.770995,34.5529761 244.663086,34.010257 244.663086,33.4008789 L244.663086,33.4008789 Z M254.749512,33.4008789 C254.749512,32.8338188 254.865884,32.3217796 255.098633,31.8647461 C255.331381,31.4077126 255.654051,31.0183935 256.06665,30.6967773 C256.47925,30.3751612 256.968015,30.127605 257.532959,29.9541016 C258.097903,29.7805981 258.710446,29.6938477 259.370605,29.6938477 C259.878421,29.6938477 260.338621,29.7446284 260.751221,29.8461914 C261.16382,29.9477544 261.529865,30.0863435 261.849365,30.2619629 C262.168866,30.4375823 262.443928,30.6459949 262.674561,30.887207 C262.905193,31.1284192 263.095621,31.3886705 263.24585,31.6679688 C263.396078,31.947267 263.507161,32.2403142 263.579102,32.5471191 C263.651042,32.8539241 263.687012,33.1617823 263.687012,33.4707031 L258.596191,33.4707031 C258.596191,34.1181673 258.624756,34.6450175 258.681885,35.0512695 C258.739014,35.4575216 258.829996,35.7759591 258.954834,36.0065918 C259.079672,36.2372245 259.240478,36.3948563 259.437256,36.4794922 C259.634034,36.564128 259.872069,36.6064453 260.151367,36.6064453 C260.506838,36.6064453 260.841144,36.5620122 261.154297,36.4731445 C261.467449,36.3842769 261.747801,36.258383 261.995361,36.095459 C262.242921,35.932535 262.449218,35.7357596 262.614258,35.505127 C262.779298,35.2744943 262.891439,35.0153009 262.950684,34.7275391 L263.547363,34.7275391 C263.505045,35.1210957 263.384441,35.4733871 263.185547,35.7844238 C262.986653,36.0954605 262.723228,36.3588856 262.395264,36.574707 C262.0673,36.7905284 261.682212,36.9555658 261.23999,37.0698242 C260.797768,37.1840826 260.314293,37.2412109 259.789551,37.2412109 C258.964351,37.2412109 258.237552,37.1555184 257.609131,36.9841309 C256.98071,36.8127433 256.454917,36.5630713 256.031738,36.2351074 C255.608559,35.9071435 255.289064,35.5051293 255.073242,35.0290527 C254.857421,34.5529761 254.749512,34.010257 254.749512,33.4008789 L254.749512,33.4008789 Z M260.379883,32.8295898 C260.367187,32.3006158 260.341797,31.8605161 260.303711,31.5092773 C260.265625,31.1580386 260.210612,30.8766287 260.138672,30.6650391 C260.066731,30.4534495 259.977865,30.304281 259.87207,30.2175293 C259.766276,30.1307776 259.639324,30.0874023 259.491211,30.0874023 C259.343098,30.0874023 259.215088,30.1307776 259.107178,30.2175293 C258.999267,30.304281 258.909343,30.4534495 258.837402,30.6650391 C258.765462,30.8766287 258.710449,31.1580386 258.672363,31.5092773 C258.634277,31.8605161 258.611003,32.3006158 258.602539,32.8295898 L260.379883,32.8295898 Z" id="International-Water"></path>
                </g>
            </g>
        </g>
    </g>
</svg>